<svg width="496" height="371" viewBox="0 0 496 371" fill="none" xmlns="http://www.w3.org/2000/svg">
<path d="M378.412 198.827C377.388 205.009 463.176 231.367 461.791 237.309C442.328 320.785 397.058 363.577 344.895 354.505C289.019 344.788 256.215 261.491 271.626 168.455C287.037 75.4201 344.827 7.87737 400.703 17.5946C449.412 26.0653 477.629 82.3373 474.618 160.344C474.175 171.824 380.389 186.892 378.412 198.827Z" fill="white"/>
<path d="M134.69 198.827C133.666 205.009 219.454 231.367 218.069 237.309C198.606 320.785 153.336 363.577 101.173 354.505C45.2969 344.788 12.4931 261.491 27.9041 168.455C43.3151 75.4201 101.105 7.87737 156.981 17.5946C205.69 26.0653 233.908 82.3373 230.896 160.344C230.453 171.824 136.667 186.892 134.69 198.827Z" fill="white"/>
</svg>
