<svg width="1103" height="967" viewBox="0 0 1103 967" fill="none" xmlns="http://www.w3.org/2000/svg">
<path d="M545.699 118.773C552.975 157.578 588.627 244.647 673.028 282.482C757.43 320.317 873.118 298.247 920.412 282.482" stroke="white" stroke-width="8"/>
<path d="M700.068 457.5C698.173 468.938 856.883 517.699 854.319 528.693C818.313 683.124 734.564 762.29 638.062 745.508C534.69 727.531 474.002 573.429 502.513 401.313C515.681 321.818 545.573 252.384 584.117 202.446C620.278 249.74 673.028 282.895 713.046 294.637C753.064 306.378 803.996 315.224 873.118 294.637C877.595 322.734 879.318 353.48 878.05 386.307C877.231 407.544 703.725 435.42 700.068 457.5Z" fill="white"/>
<path d="M18.8059 279.843C52.6251 300.216 141.36 331.493 225.745 293.622C310.13 255.751 370.583 154.675 390.262 108.871" stroke="white" stroke-width="8"/>
<path d="M249.178 457.5C247.283 468.938 405.993 517.699 403.429 528.693C367.423 683.124 283.674 762.29 187.172 745.507C83.7998 727.53 23.1125 573.429 51.623 401.313C57.3351 366.829 66.1944 334.238 77.5419 304.31C134.605 317.043 203.761 307.184 240.107 282.482C285.606 251.559 309.229 238.826 361.98 160.123C407.088 205.436 431.025 286.197 427.161 386.307C426.341 407.544 252.835 435.42 249.178 457.5Z" fill="white"/>
<path d="M994.91 704.876C939.839 646.17 847.305 638.952 807.922 642.681C813.946 651.446 828.708 681.569 839.559 731.942C853.123 794.907 840.88 828.718 854.923 872.989C866.405 909.188 945.633 950.89 1005.77 905.657C1065.91 860.425 1063.75 778.258 994.91 704.876Z" fill="white"/>
</svg>
