


<svg version="1.1" id="레이어_1" xmlns="http://www.w3.org/2000/svg" xmlns:xlink="http://www.w3.org/1999/xlink" x="0px" y="0px" viewBox="0 0 927 269" enable-background="new 0 0 927 269" xml:space="preserve">
<rect fill="none" width="927" height="269"></rect>
<g>
	<path fill="#E60012" d="M190.755,240.76c-29.014,28.987-76.494,28.987-105.509,0l-53.603-53.554
		C2.626,158.219,2.626,110.781,31.64,81.794L85.245,28.24c29.016-28.987,76.495-28.987,105.509,0l53.605,53.554
		c29.014,28.987,29.014,76.425,0,105.412L190.755,240.76z"></path>
	<g>
		<g>
			<path fill="#FFFFFF" d="M106.208,213.166c-4.262,0-7.737-3.332-7.911-7.586c-0.087-2.114,0.654-4.135,2.086-5.692
				c1.434-1.559,3.389-2.465,5.506-2.551c4.361-0.208,8.066,3.215,8.251,7.585c0.179,4.363-3.228,8.057-7.594,8.236
				C106.434,213.164,106.321,213.166,106.208,213.166z"></path>
		</g>
		<g>
			<path fill="#FFFFFF" d="M135.051,66.982c-4.35,0-7.833,1.36-10.651,4.156c-6.077,6.037-9.268,18.495-8.983,35.078
				c0.342,20.445,5.216,60.557,21.311,81.211c2.609,3.344,5.415,6.016,8.34,7.944c2.834,1.873,6.014,3.701,10.98,3.701
				c1.344,0,2.792-0.137,4.301-0.407c9.232-2.213,20.792-12.477,29.39-26.136c1.312-2.083,3.564-3.325,6.025-3.325
				c1.335,0,2.64,0.377,3.775,1.091c1.608,1.011,2.726,2.587,3.149,4.437c0.423,1.851,0.099,3.754-0.913,5.357
				c-10.874,17.277-25.23,29.409-38.402,32.453c-0.045,0.019-0.186,0.048-0.329,0.073c-2.416,0.442-4.791,0.668-7.051,0.668
				c-8.496,0-14.489-3.233-18.76-6.051c-4.222-2.79-8.164-6.515-11.721-11.07c-22.661-29.076-24.211-83.581-24.314-89.701
				c-0.244-14.505,1.845-34.157,13.186-45.403c5.534-5.485,12.468-8.266,20.609-8.266l1.321,0.001
				c8.162,0,15.105,2.781,20.637,8.266c11.34,11.246,13.43,30.898,13.186,45.403c-0.257,15.113-3.031,44.384-18.714,70.63
				c-1.278,2.134-3.62,3.459-6.112,3.459c-1.282,0-2.54-0.347-3.637-1.004c-3.36-2.004-4.465-6.374-2.462-9.741
				c10.978-18.365,16.286-38.57,16.704-63.587c0.283-16.589-2.908-29.047-8.985-35.079c-2.816-2.797-6.293-4.156-10.631-4.156
				L135.051,66.982z"></path>
		</g>
	</g>
</g>
<g>
	<path fill="#E60012" d="M426.539,137.366v7.795H319.461v-7.795h45.561v-10.724h-25.216c-4.386,0-8.16-3.408-8.16-8.037V99.966
		h69.133V89.125h-69.133v-7.798h84.604v26.557h-68.891v7.433c0,2.435,0.851,3.288,3.046,3.288h67.306v8.037h-36.853v10.724H426.539z
		 M421.18,182.68l-4.509,6.82c-9.136-0.853-30.82-7.675-43.734-21.927c-12.91,14.252-34.229,21.074-43.731,21.927l-4.506-6.82
		c9.137-1.342,34.475-12.794,39.714-30.333h17.05C386.702,169.886,412.044,181.459,421.18,182.68"></path>
	<path fill="#E60012" d="M492.152,153.285c6.094,0,9.502,0.123,12.185-2.19v-24.243h-22.292v-8.037h22.292V79.5h15.471v108.907
		h-15.471V159.5c-2.193,1.217-6.09,1.95-12.185,1.95h-31.788c-6.338,0-10.481-4.753-10.481-10.355V88.723h44.343v8.165h-28.747
		v52.381c0,2.436,0.851,4.017,3.777,4.017H492.152z M530.647,79.5h15.471v108.901h-15.471V79.5z"></path>
	<path fill="#E60012" d="M606.279,106.423c0,21.927,15.346,40.322,28.87,46.655l-6.095,6.091
		c-7.429-1.95-22.289-12.791-30.453-26.313c-7.675,13.645-22.536,24.243-30.451,26.19l-5.971-5.968
		c13.885-6.09,27.531-24,27.531-46.532V82.549h16.57V106.423z M645.745,188.407 M645.745,79.5h16.076v108.901h-16.076V79.5z"></path>
	<path fill="#E60012" d="M729.154,147.597c6.21,0,9.379,0.12,12.182-2.193v-26.434h-20.951v-8.042h20.951V79.5h15.594v108.907
		h-15.594v-34.963c-2.313,1.339-5.971,1.947-12.182,1.947h-34.227c-4.873,0-7.921-3.288-7.921-7.674V83.763h15.835v59.813
		c0,2.436,1.099,4.021,3.897,4.021H729.154z M767.526,79.5h15.469v108.901h-15.469V79.5z"></path>
	<path fill="#E60012" d="M813.599,157.705c-6.453,0-9.869-3.893-9.869-9.863V83.522h56.89v74.183H813.599z M822.248,149.667h22.903
		V91.562h-25.705v55.303C819.446,148.692,820.175,149.667,822.248,149.667 M894.24,113.855h18.03v7.917h-18.03v66.635h-15.836V79.5
		h15.836V113.855z"></path>
</g>
</svg>
