<svg xmlns="http://www.w3.org/2000/svg" xmlns:xlink="http://www.w3.org/1999/xlink" width="610.25" height="269.47" viewBox="0 0 161.46198 71.297273" version="1.1">
  <g>
    <path d="m 149.91256,7.5930449 -2.1724,-6.16585 c -0.39265,-1.11195501 -1.61114,-1.69933001 -2.72803,-1.30351401 -1.11337,0.390878 -1.69757,1.61219501 -1.30634,2.72556101 l 2.28953,6.498167 2.74919,1.5578671 z" fill="#E42313"></path>
    <path d="m 153.82617,9.3472679 2.29024,-6.498167 c 0.39087,-1.113014 -0.19333,-2.33468301 -1.30634,-2.72556101 -1.11196,-0.395816 -2.33504,0.191559 -2.72486,1.30386701 l -2.17275,6.165497 1.16593,3.3125831 z" fill="#EC6707"></path>
    <path d="m 161.18353,7.6307569 c -0.58455,-1.02623 -1.88877,-1.385711 -2.91536,-0.801864 l -4.44182,2.518481 -1.20121,3.4131251 2.32057,0.870655 5.43172,-3.084689 c 1.02694,-0.5799661 1.38889,-1.8870081 0.8061,-2.9157081" fill="#E42313"></path>
    <path d="m 152.05057,17.109261 4.65632,1.74625 c 0.248,0.09349 0.50164,0.135466 0.74965,0.135466 0.86818,0 1.68134,-0.529166 2.00448,-1.387827 0.41416,-1.106311 -0.14711,-2.337506 -1.25236,-2.752373 l -3.26284,-1.219552 -2.89525,1.639711 z" fill="#EC6707"></path>
    <path d="m 147.77109,17.109261 v 3.379258 c 0,1.179336 0.95991,2.135364 2.14137,2.135364 1.18039,0 2.13818,-0.956028 2.13818,-2.135364 v -3.379258 l -2.13818,-0.799395 z" fill="#E42313"></path>
    <path d="m 144.87581,13.631084 -3.26037,1.219905 c -1.10843,0.414514 -1.66758,1.645708 -1.25201,2.752019 0.32103,0.859014 1.13771,1.387828 2.00237,1.387828 0.24871,0 0.50165,-0.04163 0.74824,-0.135114 l 4.65702,-1.746602 v -1.838325 z" fill="#E42313"></path>
    <path d="m 145.99549,9.3472679 -4.44006,-2.518481 c -1.02658,-0.583847 -2.33151,-0.224366 -2.91535,0.801864 -0.58138,1.0287 -0.21978,2.335742 0.8068,2.9157081 l 5.4289,3.084689 2.32233,-0.870655 z" fill="#EC6707"></path>
    <path d="m 69.081649,70.65034 c 7.534981,0 14.402506,-3.18452 19.26343,-8.21302 3.258609,-3.3528 5.670198,-7.566021 6.920089,-12.248793 l 8.413752,15.812913 c 1.3081,2.45745 3.85551,3.99838 6.63645,3.99838 2.78236,0 5.33012,-1.54093 6.63787,-3.99838 l 20.56095,-38.627757 c 1.9558,-3.674886 0.56021,-8.233128 -3.11644,-10.186106 -3.67771,-1.954388 -8.24618,-0.5588 -10.19951,3.114675 l -13.26268,25.837444 -0.62019,2.123017 -0.61595,-2.123017 -13.265146,-25.837444 c -1.951567,-3.673475 -6.518628,-5.069063 -10.195983,-3.114675 -3.678061,1.952978 -5.073298,6.51122 -3.116439,10.186106 l 4.953352,9.313333 H 72.787933 c -3.463573,0 -6.27627,2.896305 -6.27627,6.47065 0,3.571875 2.812697,6.467827 6.27627,6.467827 h 7.558616 c -2.035528,3.13302 -5.497336,6.175728 -11.286419,6.175728 -3.359503,-0.0063 -6.351764,-1.373011 -8.628944,-3.701697 -2.258836,-2.337506 -3.680178,-5.559072 -3.683,-9.211028 -0.01023,-6.334125 4.336697,-11.458574 9.752541,-12.635441 4.002264,-0.887236 6.5278,-4.852106 5.644797,-8.85578 -0.524933,-2.360789 -2.118078,-4.208287 -4.159955,-5.143853 -2.958747,-1.292225 -6.60012,0 -6.60012,0 -11.394369,3.429705 -19.47933,14.131925 -19.487091,26.635074 0,1.613959 0.141464,3.198284 0.403578,4.742392 -2.375606,3.916539 -6.851296,8.833908 -14.341476,8.833908 -7.19843,-0.01446 -13.12545,-5.911144 -13.12862,-13.30713 0.003,-6.571897 4.67536,-11.957403 10.76042,-13.091936 0,0 1.53423,-0.297039 3.9998,-0.503061 2.36925,-0.199672 5.7845,-2.967214 5.7845,-7.134578 0,-4.095397 -3.31929,-7.414683 -7.4161,-7.414683 C 12.46576,15.025048 0.02858,27.65908 0,43.157666 0.0286,58.65025 12.46576,71.28711 27.96046,71.29734 c 8.43456,-0.006 15.956493,-3.75567 21.070006,-9.66611 0,0 7.182909,9.01911 20.051183,9.01911" fill="#E42313"></path>
  </g>
</svg>